<svg xmlns="http://www.w3.org/2000/svg" version="1.1" xmlns:xlink="http://www.w3.org/1999/xlink" xmlns:svgjs="http://svgjs.dev/svgjs" width="1500" height="1500" viewBox="0 0 1500 1500"><rect width="1500" height="1500" fill="#ffffff"></rect><g transform="matrix(0.6666666666666666,0,0,0.6666666666666666,250.32517832278683,308.0248313090418)"><svg viewBox="0 0 279 247" data-background-color="#ffffff" preserveAspectRatio="xMidYMid meet" height="1327" width="1500" xmlns="http://www.w3.org/2000/svg" xmlns:xlink="http://www.w3.org/1999/xlink"><g id="tight-bounds" transform="matrix(1,0,0,1,-0.09072475205752539,-0.09999999999999432)"><svg viewBox="0 0 279.18144950411505 247.2" height="247.2" width="279.18144950411505"><g><svg viewBox="0 0 397.4975999999999 351.9625207711074" height="247.2" width="279.18144950411505"><g><rect width="397.4975999999999" height="6.894054304232915" x="0" y="188.07402387244264" fill="#000000" opacity="1" stroke-width="0" stroke="transparent" fill-opacity="1" class="rect-qz-0" data-fill-palette-color="primary" rx="1%" id="qz-0" data-palette-color="#4a596d"></rect></g><g><rect width="397.4975999999999" height="6.894054304232915" x="0" y="203.99170946493857" fill="#000000" opacity="1" stroke-width="0" stroke="transparent" fill-opacity="1" class="rect-qz-1" data-fill-palette-color="primary" rx="1%" id="qz-1" data-palette-color="#4a596d"></rect></g><g transform="matrix(1,0,0,1,0.9887999999999693,228.93302634569744)"><svg viewBox="0 0 395.52 123.02949442541004" height="123.02949442541004" width="395.52"><g id="textblocktransform"><svg viewBox="0 0 395.52 123.02949442541004" height="123.02949442541004" width="395.52" id="textblock"><g><svg viewBox="0 0 395.52 76.44683312376503" height="76.44683312376503" width="395.52"><g transform="matrix(1,0,0,1,0,0)"><svg width="395.52" viewBox="2 -40.8 278.33 53.8" height="76.44683312376503" data-palette-color="#4a596d"><path d="M6.75-6.65L6.75-6.65Q6.75-4.05 7.7-2.98 8.65-1.9 10.7-1.9L10.7-1.9Q12.2-1.9 14.03-2.83 15.85-3.75 17.4-5.5L17.4-5.5 17.4-13.3Q12.25-13 9.5-11.48 6.75-9.95 6.75-6.65ZM17.4-15.1L17.4-15.1 17.4-17.65Q17.4-21.9 16.43-23.83 15.45-25.75 13.2-25.75L13.2-25.75Q10.9-25.75 9.5-24.28 8.1-22.8 7.6-19.25L7.6-19.25Q6-18.9 5.25-18.9L5.25-18.9Q3.3-18.9 2.95-20.3L2.95-20.3Q2.95-23.7 5.9-25.7 8.85-27.7 13.25-27.7L13.25-27.7Q18.1-27.7 20.13-25.73 22.15-23.75 22.15-18.65L22.15-18.65 22.15-4.55Q22.15-3.3 22.3-2.4L22.3-2.4 26.25-1.9Q26.45-1.15 26.25 0L26.25 0Q22.7 0.15 18.7 0.7L18.7 0.7Q18.3 0.3 18.2-0.3L18.2-0.3 17.95-3.75Q13.8 1 8.7 1L8.7 1Q5.55 1 3.78-0.8 2-2.6 2-5.65L2-5.65Q2-10.25 6.18-12.6 10.35-14.95 17.4-15.1ZM37.35-26.7L37.35-26.7 37.25-21.55Q38.5-23.85 40.72-25.78 42.95-27.7 44.95-27.7L44.95-27.7Q46.5-27.7 47.7-27.35L47.7-27.35Q48.1-26.7 48.1-25.65L48.1-25.65Q48.1-24 47.4-22.35L47.4-22.35Q45.6-22.85 43.95-22.85L43.95-22.85Q39.85-22.85 37.2-18.85L37.2-18.85 37.1-10.1 37.1-2.55 42.65-1.8Q42.85-1 42.65 0.2L42.65 0.2Q39.5 0.05 35.45 0.05L35.45 0.05Q32.4 0.05 28.2 0.15L28.2 0.15Q27.9-0.8 28.2-1.8L28.2-1.8 32.15-2.35Q32.35-5.1 32.35-8.7L32.35-8.7 32.35-22.4Q32.35-23.4 32.2-24.25L32.2-24.25 28.25-24.75Q28.05-25.5 28.25-26.65L28.25-26.65Q31.7-26.9 36.85-27.7L36.85-27.7Q37.3-27.2 37.35-26.7ZM57.95-32.7L57.95-32.7 57.95-25.55 65-25.55Q65.1-24.95 65.1-24.65L65.1-24.65Q65.1-24.2 65-23.6L65-23.6 57.95-22.55 57.95-8.8Q57.95-5.1 58.62-3.58 59.3-2.05 60.75-2.05L60.75-2.05Q62.05-2.05 64.8-3.1L64.8-3.1Q65.3-2.65 65.5-1.4L65.5-1.4Q64-0.5 63.22-0.08 62.45 0.35 61.27 0.68 60.1 1 58.8 1L58.8 1Q56.3 1 54.72-0.93 53.15-2.85 53.15-6.8L53.15-6.8 53.15-23.15 49.65-23.6Q49.55-24.1 49.55-24.45L49.55-24.45Q49.55-24.85 49.65-25.55L49.65-25.55Q51.05-25.8 52.07-26.43 53.1-27.05 53.8-28.18 54.5-29.3 54.87-30.18 55.25-31.05 55.8-32.7L55.8-32.7Q56.25-32.85 56.9-32.85L56.9-32.85Q57.5-32.85 57.95-32.7ZM85.29-6.65L85.29-6.65Q85.29-4.05 86.24-2.98 87.19-1.9 89.24-1.9L89.24-1.9Q90.74-1.9 92.57-2.83 94.39-3.75 95.94-5.5L95.94-5.5 95.94-13.3Q90.79-13 88.04-11.48 85.29-9.95 85.29-6.65ZM95.94-15.1L95.94-15.1 95.94-17.65Q95.94-21.9 94.97-23.83 93.99-25.75 91.74-25.75L91.74-25.75Q89.44-25.75 88.04-24.28 86.64-22.8 86.14-19.25L86.14-19.25Q84.54-18.9 83.79-18.9L83.79-18.9Q81.84-18.9 81.49-20.3L81.49-20.3Q81.49-23.7 84.44-25.7 87.39-27.7 91.79-27.7L91.79-27.7Q96.64-27.7 98.67-25.73 100.69-23.75 100.69-18.65L100.69-18.65 100.69-4.55Q100.69-3.3 100.84-2.4L100.84-2.4 104.79-1.9Q104.99-1.15 104.79 0L104.79 0Q101.24 0.15 97.24 0.7L97.24 0.7Q96.84 0.3 96.74-0.3L96.74-0.3 96.49-3.75Q92.34 1 87.24 1L87.24 1Q84.09 1 82.32-0.8 80.54-2.6 80.54-5.65L80.54-5.65Q80.54-10.25 84.72-12.6 88.89-14.95 95.94-15.1ZM115.09-31.7L115.09-31.7 115.09-2.55 119.14-1.8Q119.34-1 119.14 0.2L119.14 0.2Q115.99 0.05 112.69 0.05L112.69 0.05Q110.39 0.05 106.19 0.15L106.19 0.15Q105.89-0.8 106.19-1.8L106.19-1.8 110.14-2.35Q110.34-5.1 110.34-8.7L110.34-8.7 110.34-37.35 106.24-37.85Q106.04-38.6 106.24-39.75L106.24-39.75Q109.69-40 114.84-40.8L114.84-40.8Q115.29-40.3 115.34-39.8L115.34-39.8Q115.09-38.5 115.09-31.7ZM144.09-20.3L144.09-20.3Q143.04-19.2 139.14-19.25L139.14-19.25Q138.34-25.55 134.59-25.55L134.59-25.55Q131.64-25.55 129.59-22.15 127.54-18.75 127.54-13.2L127.54-13.2Q127.54-7.5 129.34-4.42 131.14-1.35 134.74-1.35L134.74-1.35Q138.54-1.35 142.19-4.45L142.19-4.45Q142.94-4 143.34-2.9L143.34-2.9Q139.69 1 134.19 1L134.19 1Q128.94 1 125.59-2.63 122.24-6.25 122.24-13.3L122.24-13.3Q122.24-20.05 125.96-23.88 129.69-27.7 134.49-27.7L134.49-27.7Q138.29-27.7 141.19-25.8 144.09-23.9 144.09-20.3ZM150.88-8.7L150.88-32.45Q150.88-35.75 150.73-37.35L150.73-37.35 146.78-37.85Q146.58-38.6 146.78-39.75L146.78-39.75Q150.13-40 155.33-40.8L155.33-40.8Q155.78-40.3 155.83-39.8L155.83-39.8Q155.58-38.5 155.58-31.7L155.58-31.7 155.58-22.25Q159.28-27.35 164.48-27.35L164.48-27.35Q167.58-27.35 169.78-25.8 171.98-24.25 171.98-20.5L171.98-20.5 171.98-2.55 176.03-1.8Q176.23-1 176.03 0.2L176.03 0.2Q172.88 0.05 169.63 0.05L169.63 0.05Q167.33 0.05 163.13 0.15L163.13 0.15Q162.83-0.8 163.13-1.8L163.13-1.8 167.08-2.35Q167.28-5.1 167.28-8.7L167.28-8.7 167.28-18Q167.28-21.5 166.41-23.05 165.53-24.6 163.23-24.6L163.23-24.6Q161.33-24.6 159.26-23.2 157.18-21.8 155.58-19.15L155.58-19.15 155.58-2.55 159.63-1.8Q159.83-1 159.63 0.2L159.63 0.2Q156.48 0.05 153.23 0.05L153.23 0.05Q150.93 0.05 146.73 0.15L146.73 0.15Q146.43-0.8 146.73-1.8L146.73-1.8 150.68-2.35Q150.88-5.1 150.88-8.7L150.88-8.7ZM199.88-14.1L199.88-14.1 184.18-14.1Q183.73-1.35 191.83-1.35L191.83-1.35Q195.28-1.35 198.88-4.4L198.88-4.4Q199.63-3.95 200.03-2.85L200.03-2.85Q196.58 1 191.28 1L191.28 1Q179.08 1 179.08-13.35L179.08-13.35Q179.08-20.15 182.68-23.93 186.28-27.7 191.08-27.7L191.08-27.7Q196.33-27.7 198.63-24.05 200.93-20.4 200.93-14.55L200.93-14.55Q200.43-14.15 199.88-14.1ZM190.98-25.7L190.98-25.7Q188.38-25.7 186.56-23 184.73-20.3 184.33-16.1L184.33-16.1 190.53-16.1Q194.23-16.1 195.83-16.55L195.83-16.55Q195.83-20.65 194.58-23.18 193.33-25.7 190.98-25.7ZM241.68-8.7L241.68-17.85Q241.68-24.8 237.23-24.8L237.23-24.8Q233.43-24.8 230.03-19.55L230.03-19.55 230.03-2.55 234.08-1.8Q234.28-1 234.08 0.2L234.08 0.2Q230.93 0.05 227.68 0.05L227.68 0.05Q225.38 0.05 221.18 0.15L221.18 0.15Q220.88-0.8 221.18-1.8L221.18-1.8 225.13-2.35Q225.33-5.1 225.33-8.7L225.33-8.7 225.33-17.85Q225.33-24.8 220.88-24.8L220.88-24.8Q218.63-24.8 216.93-23.43 215.23-22.05 213.43-19.15L213.43-19.15 213.43-2.55 217.48-1.8Q217.68-1 217.48 0.2L217.48 0.2Q214.33 0.05 211.08 0.05L211.08 0.05Q208.78 0.05 204.58 0.15L204.58 0.15Q204.28-0.8 204.58-1.8L204.58-1.8 208.53-2.35Q208.73-5.1 208.73-8.7L208.73-8.7 208.73-22.4Q208.73-23.4 208.58-24.25L208.58-24.25 204.63-24.75Q204.43-25.5 204.63-26.65L204.63-26.65Q207.98-26.9 213.18-27.7L213.18-27.7Q213.63-27.2 213.68-26.7L213.68-26.7Q213.43-25.4 213.43-22.25L213.43-22.25Q217.38-27.7 222.33-27.7L222.33-27.7Q224.93-27.7 227.08-26.38 229.23-25.05 229.83-22.3L229.83-22.3Q233.83-27.7 238.68-27.7L238.68-27.7Q241.73-27.7 244.05-25.9 246.38-24.1 246.38-20.35L246.38-20.35 246.38-2.55 250.43-1.8Q250.63-1 250.43 0.2L250.43 0.2Q247.28 0.05 244.03 0.05L244.03 0.05Q241.73 0.05 237.53 0.15L237.53 0.15Q237.23-0.8 237.53-1.8L237.53-1.8 241.48-2.35Q241.68-5.1 241.68-8.7L241.68-8.7ZM260.88 7.4L260.88 7.4 264.08-0.15 254.38-24.05 250.48-24.85Q250.23-25.85 250.48-26.85L250.48-26.85Q253.23-26.65 257.18-26.65L257.18-26.65Q260.73-26.65 263.93-26.8L263.93-26.8Q264.23-25.8 263.93-24.85L263.93-24.85 259.63-24.15 264.38-12.9Q265.38-10.45 266.48-6.05L266.48-6.05 266.58-6.05Q267.43-9.05 268.93-12.65L268.93-12.65 273.28-24.3 269.38-24.85Q269.18-25.65 269.38-26.85L269.38-26.85Q272.13-26.65 274.73-26.65L274.73-26.65Q276.93-26.65 280.18-26.8L280.18-26.8Q280.48-25.8 280.18-24.85L280.18-24.85 276.23-24.3 263.03 8Q261.98 10.5 260.68 11.75 259.38 13 257.23 13L257.23 13Q255.53 13 254.6 12.58 253.68 12.15 252.73 10.95L252.73 10.95Q253.03 8.2 255.58 6.55L255.58 6.55Q257.63 8.85 259.08 8.85L259.08 8.85Q260.33 8.85 260.88 7.4Z" opacity="1" transform="matrix(1,0,0,1,0,0)" fill="#000000" class="wordmark-text-0" data-fill-palette-color="primary" id="text-0"></path></svg></g></svg></g><g transform="matrix(1,0,0,1,75.54432,94.49409570029098)"><svg viewBox="0 0 244.43135999999998 28.535398725119055" height="28.535398725119055" width="244.43135999999998"><g transform="matrix(1,0,0,1,0,0)"><svg width="244.43135999999998" viewBox="1.25 -34 409.41 47.8" height="28.535398725119055" data-palette-color="#aab7c0"><path d="M9.2 0.65L9.2 0.65Q6.15 0.65 4.83-1.38 3.5-3.4 3.5-6.6L3.5-6.6Q3.5-7.75 3.63-8.85 3.75-9.95 3.9-11.05L3.9-11.05Q4.05-12.15 4.2-13.2 4.35-14.25 4.45-15.2L4.45-15.2Q3.4-14.9 2.35-14.9L2.35-14.9Q1.25-14.9 1.25-15.8L1.25-15.8Q1.25-16.75 2.1-18.13 2.95-19.5 4.23-20.85 5.5-22.2 6.78-23.13 8.05-24.05 8.95-24.05L8.95-24.05Q10.05-24.05 10.05-22.15L10.05-22.15Q10.05-21.65 9.98-21.13 9.9-20.6 9.8-20.05L9.8-20.05Q10.75-20.25 11.73-20.4 12.7-20.55 13.6-20.55L13.6-20.55Q14.75-20.55 15.38-20.15 16-19.75 16-18.6L16-18.6Q16-17.4 15.43-16.2 14.85-15 14.15-15L14.15-15Q14-15 13.65-15.05 13.3-15.1 12.8-15.2L12.8-15.2Q12.15-15.35 11.15-15.5 10.15-15.65 8.75-15.65L8.75-15.65Q8.4-14.1 8.13-12.48 7.85-10.85 7.85-9.55L7.85-9.55Q7.85-6.65 9.3-5.6 10.75-4.55 13.5-4.55L13.5-4.55Q14.35-4.55 14.7-4.28 15.05-4 15.05-3.3L15.05-3.3Q15.05-1.65 13.35-0.5 11.65 0.65 9.2 0.65ZM21.65 0.55L21.65 0.55Q20.85 0.55 20.37 0.28 19.9 0 20.05-0.65L20.05-0.65Q20.6-2.8 20.97-5.03 21.35-7.25 21.35-9.3L21.35-9.3Q21.35-11.95 21.02-13.18 20.7-14.4 20.15-14.88 19.6-15.35 18.8-15.6L18.8-15.6Q18.45-15.75 18.17-16 17.9-16.25 17.9-16.7L17.9-16.7Q17.9-17.4 18.45-18.25 19-19.1 20-19.73 21-20.35 22.3-20.35L22.3-20.35Q24-20.35 24.67-19.18 25.35-18 25.35-16.1L25.35-16.1Q26.25-18.1 27.57-19.28 28.9-20.45 30.9-20.45L30.9-20.45Q32.25-20.45 33.15-19.85 34.05-19.25 34.05-17.9L34.05-17.9Q34.05-16.55 33.17-15.38 32.3-14.2 31.4-14.2L31.4-14.2Q31.25-14.2 31.05-14.25 30.85-14.3 30.7-14.5L30.7-14.5Q30.05-15.3 29.1-15.3L29.1-15.3Q27.65-15.3 26.55-13.4 25.45-11.5 25.35-8.15L25.35-8.15Q25.4-6.9 25.42-5.6 25.45-4.3 25.45-3.7L25.45-3.7Q25.45-1.85 24.42-0.65 23.4 0.55 21.65 0.55ZM40.95 0.65L40.95 0.65Q37.95 0.65 36.12-1.23 34.3-3.1 34.3-6.6L34.3-6.6Q34.3-9.1 35.27-11.58 36.24-14.05 38.09-16.05 39.95-18.05 42.55-19.25 45.14-20.45 48.39-20.45L48.39-20.45Q51.39-20.45 53.52-19.43 55.64-18.4 55.64-16.65L55.64-16.65Q55.64-16.2 55.55-15.48 55.45-14.75 55.3-14.3L55.3-14.3Q55.14-13.9 54.87-13.58 54.59-13.25 54.14-13.25L54.14-13.25Q53.95-13.25 53.39-13.4L53.39-13.4Q53.2-12.35 53.09-11.35 53-10.35 53-9.35L53-9.35Q53-7.45 53.57-5.98 54.14-4.5 55.84-4.15L55.84-4.15Q56.3-4.05 56.57-3.85 56.84-3.65 56.84-3L56.84-3Q56.84-2.45 56.57-1.6 56.3-0.75 55.52-0.08 54.75 0.6 53.3 0.6L53.3 0.6Q51.34 0.6 50.3-0.83 49.25-2.25 49.25-4.9L49.25-4.9Q47.89-2.45 45.82-0.9 43.74 0.65 40.95 0.65ZM42.55-4.55L42.55-4.55Q44.55-4.55 46.07-5.8 47.59-7.05 48.45-8.95L48.45-8.95Q49-10.15 49.3-11.58 49.59-13 49.7-14.4L49.7-14.4Q48.84-14.8 47.74-15.05 46.64-15.3 45.45-15.3L45.45-15.3Q42.39-15.3 40.42-13.5 38.45-11.7 38.45-9L38.45-9Q38.45-7 39.55-5.78 40.64-4.55 42.55-4.55ZM62.74 0.55L62.74 0.55Q60.94 0.55 61.14-0.65L61.14-0.65Q61.69-2.8 62.07-5.03 62.44-7.25 62.44-9.3L62.44-9.3Q62.44-11.95 62.12-13.18 61.79-14.4 61.24-14.88 60.69-15.35 59.89-15.6L59.89-15.6Q59.54-15.75 59.27-16 58.99-16.25 58.99-16.7L58.99-16.7Q58.99-17.4 59.54-18.25 60.09-19.1 61.12-19.73 62.14-20.35 63.44-20.35L63.44-20.35Q65.14-20.35 65.79-19.18 66.44-18 66.44-16.1L66.44-16.1Q66.44-14.85 66.19-13.3 65.94-11.75 65.69-10.5L65.69-10.5 65.84-10.45Q66.84-13.1 68.27-15.38 69.69-17.65 71.59-19.05 73.49-20.45 75.99-20.45L75.99-20.45Q78.64-20.45 80.04-18.85 81.44-17.25 81.44-14.85L81.44-14.85Q81.44-13.85 81.22-12.95 80.99-12.05 80.74-11.2L80.74-11.2Q80.49-10.4 80.32-9.55 80.14-8.7 80.14-7.85L80.14-7.85Q80.14-5 82.84-4L82.84-4Q83.54-3.7 83.54-3.1L83.54-3.1Q83.54-2.65 83.24-1.8 82.94-0.95 82.14-0.23 81.34 0.5 79.79 0.5L79.79 0.5Q77.79 0.5 76.69-0.93 75.59-2.35 75.59-4.55L75.59-4.55Q75.59-5.8 75.87-7.08 76.14-8.35 76.44-9.45L76.44-9.45Q76.64-10.3 76.82-11.13 76.99-11.95 76.99-12.6L76.99-12.6Q76.99-14.9 74.59-14.9L74.59-14.9Q72.54-14.9 70.99-13.38 69.44-11.85 68.34-9.55 67.24-7.25 66.54-4.9L66.54-4.9 66.54-3.7Q66.54-1.85 65.52-0.65 64.49 0.55 62.74 0.55ZM93.34 0.65L93.34 0.65Q91.49 0.65 89.89 0.1 88.29-0.45 87.29-1.45 86.29-2.45 86.29-3.85L86.29-3.85Q86.29-4.6 86.67-5.28 87.04-5.95 87.89-5.95L87.89-5.95Q88.34-5.95 88.84-5.7L88.84-5.7Q89.74-5.2 91.14-4.78 92.54-4.35 94.09-4.35L94.09-4.35Q95.84-4.35 97.19-4.85 98.54-5.35 98.54-6.25L98.54-6.25Q98.54-6.95 97.52-7.25 96.49-7.55 94.09-7.9L94.09-7.9Q92.44-8.2 90.89-8.6 89.34-9 88.34-9.98 87.34-10.95 87.34-12.85L87.34-12.85Q87.34-14.7 88.37-16.43 89.39-18.15 91.44-19.3 93.49-20.45 96.44-20.45L96.44-20.45Q97.99-20.45 99.44-20.1 100.89-19.75 101.84-19.05 102.79-18.35 102.79-17.3L102.79-17.3Q102.79-16.4 102.17-15.65 101.54-14.9 100.72-14.43 99.89-13.95 99.34-13.95L99.34-13.95Q98.94-13.95 98.39-14.5L98.39-14.5Q97.54-15.2 96.52-15.48 95.49-15.75 94.49-15.75L94.49-15.75Q92.99-15.75 92.06-15.3 91.14-14.85 91.14-14.15L91.14-14.15Q91.14-13.5 91.92-13.1 92.69-12.7 93.84-12.53 94.99-12.35 96.04-12.2L96.04-12.2Q98.94-11.8 100.64-10.83 102.34-9.85 102.34-7.4L102.34-7.4Q102.34-5.5 101.27-3.63 100.19-1.75 98.17-0.55 96.14 0.65 93.34 0.65ZM109.59 9.6L109.59 9.6Q108.64 9.6 108.14 9.13 107.64 8.65 107.69 7.4L107.69 7.4Q107.69 6.65 107.81 4.73 107.94 2.8 108.16 0.18 108.39-2.45 108.66-5.3 108.94-8.15 109.19-10.8 109.44-13.45 109.64-15.35L109.64-15.35Q109.14-15.3 108.69-15.28 108.24-15.25 107.79-15.15L107.79-15.15Q107.29-15.05 107.04-15.05L107.04-15.05Q106.44-15.05 106.24-15.78 106.04-16.5 106.04-17.15L106.04-17.15Q106.04-17.9 106.26-18.4 106.49-18.9 107.24-19.2L107.24-19.2Q107.69-19.4 108.41-19.55 109.14-19.7 109.94-19.8L109.94-19.8Q110.19-22.75 110.71-25.4 111.24-28.05 112.34-29.9L112.34-29.9Q113.49-31.8 115.46-32.9 117.44-34 119.49-34L119.49-34Q120.99-34 122.31-33.43 123.64-32.85 124.46-31.83 125.29-30.8 125.29-29.5L125.29-29.5Q125.29-28.55 124.81-27.95 124.34-27.35 123.74-27.35L123.74-27.35Q123.49-27.35 123.19-27.45 122.89-27.55 122.59-27.65L122.59-27.65Q122.04-27.9 121.21-28.08 120.39-28.25 119.44-28.25L119.44-28.25Q117.49-28.25 116.36-27.2 115.24-26.15 114.66-24.33 114.09-22.5 113.74-20.1L113.74-20.1Q114.79-20.2 115.99-20.3 117.19-20.4 117.94-20.4L117.94-20.4Q119.14-20.4 119.81-20.03 120.49-19.65 120.49-18.6L120.49-18.6Q120.49-17.95 120.26-17.07 120.04-16.2 119.59-15.53 119.14-14.85 118.54-14.85L118.54-14.85Q118.29-14.85 117.69-15L117.69-15Q117.04-15.1 115.99-15.25 114.94-15.4 113.34-15.45L113.34-15.45Q113.14-13.3 113.01-10.68 112.89-8.05 112.89-5.15L112.89-5.15Q112.89-2 113.09 0.3 113.29 2.6 113.49 4.05L113.49 4.05Q113.59 4.7 113.64 5.2 113.69 5.7 113.69 6L113.69 6Q113.69 7.45 112.99 8.22 112.29 9 111.34 9.3 110.39 9.6 109.59 9.6ZM129.84 0.65L129.84 0.65Q126.39 0.65 124.31-1.23 122.24-3.1 122.24-6.75L122.24-6.75Q122.24-8.45 122.71-10.05 123.19-11.65 123.99-13.05L123.99-13.05Q123.19-12.55 122.79-12.55L122.79-12.55Q122.19-12.55 121.96-13.23 121.74-13.9 121.74-14.55L121.74-14.55Q121.74-15.7 122.21-16.38 122.69-17.05 123.14-17.4L123.14-17.4Q124.19-18.3 126.44-19.38 128.69-20.45 131.84-20.45L131.84-20.45Q136.14-20.45 138.51-18.05 140.89-15.65 140.89-11.35L140.89-11.35Q140.89-8 139.49-5.28 138.09-2.55 135.61-0.95 133.14 0.65 129.84 0.65ZM131.39-4.45L131.39-4.45Q133.89-4.45 135.61-6.03 137.34-7.6 137.34-10.2L137.34-10.2Q137.34-12.9 135.59-14.05 133.84-15.2 131.54-15.2L131.54-15.2Q130.49-15.2 129.64-15 128.79-14.8 128.04-14.5L128.04-14.5Q127.34-13.5 126.79-12.25 126.24-11 126.24-9.5L126.24-9.5Q126.24-7 127.74-5.73 129.24-4.45 131.39-4.45ZM147.73 0.55L147.73 0.55Q146.93 0.55 146.46 0.28 145.98 0 146.13-0.65L146.13-0.65Q146.68-2.8 147.06-5.03 147.43-7.25 147.43-9.3L147.43-9.3Q147.43-11.95 147.11-13.18 146.78-14.4 146.23-14.88 145.68-15.35 144.88-15.6L144.88-15.6Q144.53-15.75 144.26-16 143.98-16.25 143.98-16.7L143.98-16.7Q143.98-17.4 144.53-18.25 145.08-19.1 146.08-19.73 147.08-20.35 148.38-20.35L148.38-20.35Q150.08-20.35 150.76-19.18 151.43-18 151.43-16.1L151.43-16.1Q152.33-18.1 153.66-19.28 154.98-20.45 156.98-20.45L156.98-20.45Q158.33-20.45 159.23-19.85 160.13-19.25 160.13-17.9L160.13-17.9Q160.13-16.55 159.26-15.38 158.38-14.2 157.48-14.2L157.48-14.2Q157.33-14.2 157.13-14.25 156.93-14.3 156.78-14.5L156.78-14.5Q156.13-15.3 155.18-15.3L155.18-15.3Q153.73-15.3 152.63-13.4 151.53-11.5 151.43-8.15L151.43-8.15Q151.48-6.9 151.51-5.6 151.53-4.3 151.53-3.7L151.53-3.7Q151.53-1.85 150.51-0.65 149.48 0.55 147.73 0.55ZM164.98 0.55L164.98 0.55Q163.18 0.55 163.38-0.65L163.38-0.65Q163.93-2.8 164.31-5.03 164.68-7.25 164.68-9.3L164.68-9.3Q164.68-11.95 164.35-13.18 164.03-14.4 163.48-14.88 162.93-15.35 162.13-15.6L162.13-15.6Q161.78-15.75 161.5-16 161.23-16.25 161.23-16.7L161.23-16.7Q161.23-17.4 161.78-18.25 162.33-19.1 163.35-19.73 164.38-20.35 165.68-20.35L165.68-20.35Q167.38-20.35 168.03-19.18 168.68-18 168.68-16.1L168.68-16.1Q168.68-14.85 168.43-13.3 168.18-11.75 167.93-10.5L167.93-10.5 168.03-10.45Q168.83-13.1 170-15.35 171.18-17.6 172.85-19 174.53-20.4 176.73-20.4L176.73-20.4Q178.98-20.4 180.28-18.88 181.58-17.35 181.58-14.4L181.58-14.4 181.58-13.3Q183.03-16.35 185.11-18.4 187.18-20.45 190.13-20.45L190.13-20.45Q192.53-20.45 193.88-18.85 195.23-17.25 195.23-14.85L195.23-14.85Q195.23-13.9 195.03-13.03 194.83-12.15 194.58-11.3L194.58-11.3Q194.38-10.5 194.18-9.65 193.98-8.8 193.98-7.95L193.98-7.95Q193.98-4.95 196.53-4.05L196.53-4.05Q196.88-3.9 197.08-3.73 197.28-3.55 197.28-3.1L197.28-3.1Q197.28-2.65 197-1.8 196.73-0.95 195.93-0.23 195.13 0.5 193.63 0.5L193.63 0.5Q191.68 0.5 190.63-0.93 189.58-2.35 189.58-4.55L189.58-4.55Q189.58-5.65 189.78-6.85 189.98-8.05 190.28-9.15L190.28-9.15Q190.53-10.15 190.71-11.05 190.88-11.95 190.88-12.6L190.88-12.6Q190.88-13.8 190.31-14.35 189.73-14.9 188.78-14.9L188.78-14.9Q187.18-14.9 185.91-13.9 184.63-12.9 183.66-11.3 182.68-9.7 181.98-7.8L181.98-7.8Q182.03-7.35 182.06-6.63 182.08-5.9 182.08-5.35L182.08-5.35Q182.08-4.4 181.96-3.35 181.83-2.3 181.48-1.6L181.48-1.6Q181.08-0.65 180.31-0.05 179.53 0.55 178.23 0.55L178.23 0.55Q177.68 0.55 177.18 0.33 176.68 0.1 176.68-0.4L176.68-0.4Q176.68-0.6 176.98-2.18 177.28-3.75 177.58-6.05 177.88-8.35 177.88-10.55L177.88-10.55Q177.88-12.95 177.38-13.88 176.88-14.8 175.88-14.8L175.88-14.8Q174.63-14.8 173.5-13.75 172.38-12.7 171.46-11.05 170.53-9.4 169.85-7.6 169.18-5.8 168.78-4.25L168.78-4.25 168.78-3.7Q168.78-1.85 167.75-0.65 166.73 0.55 164.98 0.55ZM204.68-24.85L204.68-24.85Q203.28-24.9 202.43-25.7 201.58-26.5 201.58-27.95L201.58-27.95Q201.63-29.5 202.63-30.48 203.63-31.45 205.18-31.4L205.18-31.4Q206.63-31.35 207.45-30.55 208.28-29.75 208.23-28.3L208.23-28.3Q208.18-26.8 207.23-25.83 206.28-24.85 204.68-24.85ZM204.73 0.5L204.73 0.5Q203.23 0.5 202.38-0.33 201.53-1.15 201.53-3.15L201.53-3.15Q201.53-4.3 201.75-5.4 201.98-6.5 202.28-7.55L202.28-7.55Q202.63-8.65 202.85-9.8 203.08-10.95 203.08-12.25L203.08-12.25Q203.08-13.15 202.83-13.98 202.58-14.8 201.73-15.2L201.73-15.2Q201.08-15.55 200.6-15.93 200.13-16.3 200.13-16.9L200.13-16.9Q200.13-17.6 200.78-18.4 201.43-19.2 202.5-19.78 203.58-20.35 204.73-20.35L204.73-20.35Q205.98-20.35 206.55-19.7 207.13-19.05 207.33-18.05 207.53-17.05 207.53-16L207.53-16Q207.53-14.4 207.28-12.88 207.03-11.35 206.78-10.05L206.78-10.05Q206.58-9.1 206.48-8.3 206.38-7.5 206.38-6.8L206.38-6.8Q206.38-5.55 206.98-4.93 207.58-4.3 208.68-3.75L208.68-3.75Q209.13-3.5 209.13-3L209.13-3Q209.13-2.6 208.73-1.75 208.33-0.9 207.35-0.2 206.38 0.5 204.73 0.5ZM215.68 0.55L215.68 0.55Q213.88 0.55 214.08-0.65L214.08-0.65Q214.63-2.8 215-5.03 215.38-7.25 215.38-9.3L215.38-9.3Q215.38-11.95 215.05-13.18 214.73-14.4 214.18-14.88 213.63-15.35 212.83-15.6L212.83-15.6Q212.48-15.75 212.2-16 211.93-16.25 211.93-16.7L211.93-16.7Q211.93-17.4 212.48-18.25 213.03-19.1 214.05-19.73 215.08-20.35 216.38-20.35L216.38-20.35Q218.08-20.35 218.73-19.18 219.38-18 219.38-16.1L219.38-16.1Q219.38-14.85 219.13-13.3 218.88-11.75 218.63-10.5L218.63-10.5 218.78-10.45Q219.78-13.1 221.2-15.38 222.63-17.65 224.53-19.05 226.43-20.45 228.93-20.45L228.93-20.45Q231.58-20.45 232.98-18.85 234.38-17.25 234.38-14.85L234.38-14.85Q234.38-13.85 234.15-12.95 233.93-12.05 233.68-11.2L233.68-11.2Q233.43-10.4 233.25-9.55 233.08-8.7 233.08-7.85L233.08-7.85Q233.08-5 235.78-4L235.78-4Q236.48-3.7 236.48-3.1L236.48-3.1Q236.48-2.65 236.18-1.8 235.88-0.95 235.08-0.23 234.28 0.5 232.73 0.5L232.73 0.5Q230.73 0.5 229.63-0.93 228.53-2.35 228.53-4.55L228.53-4.55Q228.53-5.8 228.8-7.08 229.08-8.35 229.38-9.45L229.38-9.45Q229.58-10.3 229.75-11.13 229.93-11.95 229.93-12.6L229.93-12.6Q229.93-14.9 227.53-14.9L227.53-14.9Q225.48-14.9 223.93-13.38 222.38-11.85 221.28-9.55 220.18-7.25 219.48-4.9L219.48-4.9 219.48-3.7Q219.48-1.85 218.45-0.65 217.43 0.55 215.68 0.55ZM246.17 13.8L246.17 13.8Q242.42 13.8 240.22 12.25 238.02 10.7 238.02 8.25L238.02 8.25Q238.02 6.45 239.15 5.05 240.27 3.65 242.12 3.65L242.12 3.65Q243.17 3.65 243.17 4.25L243.17 4.25Q243.17 4.6 243.05 5.05 242.92 5.5 242.92 5.95L242.92 5.95Q242.92 7.35 244.52 8.03 246.12 8.7 248.37 8.7L248.37 8.7Q249.77 8.7 251.22 8.4 252.67 8.1 253.65 7.48 254.62 6.85 254.62 5.8L254.62 5.8Q254.62 4.65 253.47 4.1 252.32 3.55 250.57 3.28 248.82 3 247 2.78 245.17 2.55 243.87 2.05L243.87 2.05Q242.22 1.5 241.42 0.7 240.62-0.1 240.62-1.35L240.62-1.35Q240.62-3.7 243.47-5.1L243.47-5.1Q241.82-5.95 241-7.5 240.17-9.05 240.17-10.95L240.17-10.95Q240.17-13.4 241.45-15.55 242.72-17.7 245.25-19.07 247.77-20.45 251.57-20.45L251.57-20.45Q253.27-20.45 255.02-20.13 256.77-19.8 257.95-18.93 259.12-18.05 259.12-16.4L259.12-16.4Q259.12-15.8 258.87-15.08 258.62-14.35 257.92-14.35L257.92-14.35Q257.62-14.35 257.12-14.48 256.62-14.6 256.22-14.7L256.22-14.7Q256.32-14.2 256.4-13.6 256.47-13 256.47-12.35L256.47-12.35Q256.47-9.4 254.47-7.03 252.47-4.65 248.62-4.2L248.62-4.2Q247.22-4.1 246.55-3.88 245.87-3.65 245.87-3.1L245.87-3.1Q245.87-2.6 246.47-2.38 247.07-2.15 248.02-2.05L248.02-2.05Q251.07-1.8 253.42-1.2 255.77-0.6 257.1 0.73 258.42 2.05 258.42 4.5L258.42 4.5Q258.42 7.35 256.75 9.43 255.07 11.5 252.27 12.65 249.47 13.8 246.17 13.8ZM248.07-8.55L248.07-8.55Q250.37-8.55 251.67-9.8 252.97-11.05 252.97-13.05L252.97-13.05Q252.97-13.6 252.87-14.18 252.77-14.75 252.67-15.15L252.67-15.15Q251.87-15.4 251.12-15.48 250.37-15.55 249.67-15.55L249.67-15.55Q247.02-15.55 245.52-14.55 244.02-13.55 244.02-11.8L244.02-11.8Q244.02-10.25 245.12-9.4 246.22-8.55 248.07-8.55ZM282.67 0.65L282.67 0.65Q279.17 0.65 277.19-1.48 275.22-3.6 275.22-7.4L275.22-7.4Q275.22-11.15 276.82-14.1 278.42-17.05 281.22-18.75 284.02-20.45 287.57-20.45L287.57-20.45Q289.97-20.45 291.37-19.65 292.77-18.85 292.77-17.45L292.77-17.45Q292.77-16.2 291.57-15L291.57-15Q291.12-14.55 290.39-14.18 289.67-13.8 289.27-13.8L289.27-13.8Q288.82-13.8 288.52-14.15L288.52-14.15Q288.02-14.7 287.22-15.2 286.42-15.7 284.97-15.7L284.97-15.7Q282.52-15.7 280.97-14.03 279.42-12.35 279.42-9.65L279.42-9.65Q279.42-7.2 280.82-5.7 282.22-4.2 284.52-4.2L284.52-4.2Q285.72-4.2 287.14-4.63 288.57-5.05 289.67-5.85L289.67-5.85Q290.22-6.35 290.82-6.35L290.82-6.35Q291.82-6.35 291.82-5.1L291.82-5.1Q291.82-3.45 290.17-1.95L290.17-1.95Q288.92-0.8 286.84-0.08 284.77 0.65 282.67 0.65ZM301.72 0.65L301.72 0.65Q298.72 0.65 296.89-1.23 295.07-3.1 295.07-6.6L295.07-6.6Q295.07-9.1 296.04-11.58 297.02-14.05 298.87-16.05 300.72-18.05 303.32-19.25 305.92-20.45 309.17-20.45L309.17-20.45Q312.17-20.45 314.29-19.43 316.42-18.4 316.42-16.65L316.42-16.65Q316.42-16.2 316.32-15.48 316.22-14.75 316.07-14.3L316.07-14.3Q315.92-13.9 315.64-13.58 315.37-13.25 314.92-13.25L314.92-13.25Q314.72-13.25 314.17-13.4L314.17-13.4Q313.97-12.35 313.87-11.35 313.77-10.35 313.77-9.35L313.77-9.35Q313.77-7.45 314.34-5.98 314.92-4.5 316.62-4.15L316.62-4.15Q317.07-4.05 317.34-3.85 317.62-3.65 317.62-3L317.62-3Q317.62-2.45 317.34-1.6 317.07-0.75 316.29-0.08 315.52 0.6 314.07 0.6L314.07 0.6Q312.12 0.6 311.07-0.83 310.02-2.25 310.02-4.9L310.02-4.9Q308.67-2.45 306.59-0.9 304.52 0.65 301.72 0.65ZM303.32-4.55L303.32-4.55Q305.32-4.55 306.84-5.8 308.37-7.05 309.22-8.95L309.22-8.95Q309.77-10.15 310.07-11.58 310.37-13 310.47-14.4L310.47-14.4Q309.62-14.8 308.52-15.05 307.42-15.3 306.22-15.3L306.22-15.3Q303.17-15.3 301.19-13.5 299.22-11.7 299.22-9L299.22-9Q299.22-7 300.32-5.78 301.42-4.55 303.32-4.55ZM323.51 0.55L323.51 0.55Q321.71 0.55 321.91-0.65L321.91-0.65Q322.46-2.8 322.84-5.03 323.21-7.25 323.21-9.3L323.21-9.3Q323.21-11.95 322.89-13.18 322.56-14.4 322.01-14.88 321.46-15.35 320.66-15.6L320.66-15.6Q320.31-15.75 320.04-16 319.76-16.25 319.76-16.7L319.76-16.7Q319.76-17.4 320.31-18.25 320.86-19.1 321.89-19.73 322.91-20.35 324.21-20.35L324.21-20.35Q325.91-20.35 326.56-19.18 327.21-18 327.21-16.1L327.21-16.1Q327.21-14.85 326.96-13.3 326.71-11.75 326.46-10.5L326.46-10.5 326.61-10.45Q327.61-13.1 329.04-15.38 330.46-17.65 332.36-19.05 334.26-20.45 336.76-20.45L336.76-20.45Q339.41-20.45 340.81-18.85 342.21-17.25 342.21-14.85L342.21-14.85Q342.21-13.85 341.99-12.95 341.76-12.05 341.51-11.2L341.51-11.2Q341.26-10.4 341.09-9.55 340.91-8.7 340.91-7.85L340.91-7.85Q340.91-5 343.61-4L343.61-4Q344.31-3.7 344.31-3.1L344.31-3.1Q344.31-2.65 344.01-1.8 343.71-0.95 342.91-0.23 342.11 0.5 340.56 0.5L340.56 0.5Q338.56 0.5 337.46-0.93 336.36-2.35 336.36-4.55L336.36-4.55Q336.36-5.8 336.64-7.08 336.91-8.35 337.21-9.45L337.21-9.45Q337.41-10.3 337.59-11.13 337.76-11.95 337.76-12.6L337.76-12.6Q337.76-14.9 335.36-14.9L335.36-14.9Q333.31-14.9 331.76-13.38 330.21-11.85 329.11-9.55 328.01-7.25 327.31-4.9L327.31-4.9 327.31-3.7Q327.31-1.85 326.29-0.65 325.26 0.55 323.51 0.55ZM354.56 0.7L354.56 0.7Q353.21 0.7 352.24-0.13 351.26-0.95 351.06-3.2L351.06-3.2Q350.96-4.9 350.64-6.95 350.31-9 349.81-10.85 349.31-12.7 348.66-13.75L348.66-13.75Q348.31-14.3 347.89-14.58 347.46-14.85 346.61-14.95L346.61-14.95Q346.06-15 345.86-15.3 345.66-15.6 345.66-16.25L345.66-16.25Q345.66-18.3 346.79-19.28 347.91-20.25 349.36-20.25L349.36-20.25Q350.86-20.25 351.86-19.28 352.86-18.3 353.41-16.7 353.96-15.1 354.19-13.18 354.41-11.25 354.41-9.3L354.41-9.3Q354.41-8.5 354.39-7.63 354.36-6.75 354.36-6.15L354.36-6.15Q354.36-5.6 354.59-5.3 354.81-5 355.46-5L355.46-5Q356.26-5 357.31-5.48 358.36-5.95 359.39-6.85 360.41-7.75 361.09-8.97 361.76-10.2 361.76-11.7L361.76-11.7Q361.76-12.55 361.49-13.5 361.21-14.45 360.61-15.1L360.61-15.1Q360.01-15.75 359.74-16.13 359.46-16.5 359.46-17L359.46-17Q359.46-17.9 360.29-18.65 361.11-19.4 362.24-19.85 363.36-20.3 364.21-20.3L364.21-20.3Q365.66-20.3 366.06-19.1 366.46-17.9 366.46-16.45L366.46-16.45Q366.46-13.7 365.46-10.7 364.46-7.7 362.76-5.1 361.06-2.5 358.94-0.9 356.81 0.7 354.56 0.7ZM375.61 0.65L375.61 0.65Q372.61 0.65 370.78-1.23 368.96-3.1 368.96-6.6L368.96-6.6Q368.96-9.1 369.93-11.58 370.91-14.05 372.76-16.05 374.61-18.05 377.21-19.25 379.81-20.45 383.06-20.45L383.06-20.45Q386.06-20.45 388.18-19.43 390.31-18.4 390.31-16.65L390.31-16.65Q390.31-16.2 390.21-15.48 390.11-14.75 389.96-14.3L389.96-14.3Q389.81-13.9 389.53-13.58 389.26-13.25 388.81-13.25L388.81-13.25Q388.61-13.25 388.06-13.4L388.06-13.4Q387.86-12.35 387.76-11.35 387.66-10.35 387.66-9.35L387.66-9.35Q387.66-7.45 388.23-5.98 388.81-4.5 390.51-4.15L390.51-4.15Q390.96-4.05 391.23-3.85 391.51-3.65 391.51-3L391.51-3Q391.51-2.45 391.23-1.6 390.96-0.75 390.18-0.08 389.41 0.6 387.96 0.6L387.96 0.6Q386.01 0.6 384.96-0.83 383.91-2.25 383.91-4.9L383.91-4.9Q382.56-2.45 380.48-0.9 378.41 0.65 375.61 0.65ZM377.21-4.55L377.21-4.55Q379.21-4.55 380.73-5.8 382.26-7.05 383.11-8.95L383.11-8.95Q383.66-10.15 383.96-11.58 384.26-13 384.36-14.4L384.36-14.4Q383.51-14.8 382.41-15.05 381.31-15.3 380.11-15.3L380.11-15.3Q377.06-15.3 375.08-13.5 373.11-11.7 373.11-9L373.11-9Q373.11-7 374.21-5.78 375.31-4.55 377.21-4.55ZM401.21 0.65L401.21 0.65Q399.36 0.65 397.76 0.1 396.16-0.45 395.16-1.45 394.16-2.45 394.16-3.85L394.16-3.85Q394.16-4.6 394.53-5.28 394.91-5.95 395.76-5.95L395.76-5.95Q396.21-5.95 396.71-5.7L396.71-5.7Q397.61-5.2 399.01-4.78 400.41-4.35 401.96-4.35L401.96-4.35Q403.71-4.35 405.06-4.85 406.41-5.35 406.41-6.25L406.41-6.25Q406.41-6.95 405.38-7.25 404.36-7.55 401.96-7.9L401.96-7.9Q400.31-8.2 398.76-8.6 397.21-9 396.21-9.98 395.21-10.95 395.21-12.85L395.21-12.85Q395.21-14.7 396.23-16.43 397.26-18.15 399.31-19.3 401.36-20.45 404.31-20.45L404.31-20.45Q405.86-20.45 407.31-20.1 408.76-19.75 409.71-19.05 410.66-18.35 410.66-17.3L410.66-17.3Q410.66-16.4 410.03-15.65 409.41-14.9 408.58-14.43 407.76-13.95 407.21-13.95L407.21-13.95Q406.81-13.95 406.26-14.5L406.26-14.5Q405.41-15.2 404.38-15.48 403.36-15.75 402.36-15.75L402.36-15.75Q400.86-15.75 399.93-15.3 399.01-14.85 399.01-14.15L399.01-14.15Q399.01-13.5 399.78-13.1 400.56-12.7 401.71-12.53 402.86-12.35 403.91-12.2L403.91-12.2Q406.81-11.8 408.51-10.83 410.21-9.85 410.21-7.4L410.21-7.4Q410.21-5.5 409.13-3.63 408.06-1.75 406.03-0.55 404.01 0.65 401.21 0.65Z" opacity="1" transform="matrix(1,0,0,1,0,0)" fill="#000000" class="slogan-text-1" data-fill-palette-color="secondary" id="text-1"></path></svg></g></svg></g></svg></g></svg></g><g transform="matrix(1,0,0,1,120.36077520750342,0)"><svg viewBox="0 0 156.77604958499307 170.02676129591669" height="170.02676129591669" width="156.77604958499307"><g><svg xmlns="http://www.w3.org/2000/svg" xmlns:xlink="http://www.w3.org/1999/xlink" version="1.1" x="0" y="0" viewBox="19 15.774 50 54.226" enable-background="new 0 0 90 90" xml:space="preserve" height="170.02676129591669" width="156.77604958499307" class="icon-icon-0" data-fill-palette-color="accent" id="icon-0"><g fill="#4a596d" data-fill-palette-color="accent"><rect x="45" y="66" width="4" height="3" fill="#000000" data-fill-palette-color="accent"></rect><rect x="61" y="66" width="4" height="3" fill="#000000" data-fill-palette-color="accent"></rect><rect x="45" y="38" width="4" height="26" fill="#000000" data-fill-palette-color="accent"></rect><polygon points="45,36 45,34 46.756,29.25 49,34 49,36  " fill="#000000" data-fill-palette-color="accent"></polygon><rect x="61" y="43" width="4" height="21" fill="#000000" data-fill-palette-color="accent"></rect></g><g fill="#4a596d" data-fill-palette-color="accent"><rect x="53" y="27" width="4" height="42" fill="#000000" data-fill-palette-color="accent"></rect></g><g fill="#4a596d" data-fill-palette-color="accent"><rect x="67" y="34" width="2" height="12" fill="#000000" data-fill-palette-color="accent"></rect></g><g fill="#4a596d" data-fill-palette-color="accent"><path d="M38 49v-8H22v8h-3v21h22V49H38zM26 45h8v4h-8V45zM37 66H23V53h14V66z" fill="#000000" data-fill-palette-color="accent"></path><path d="M30 65.75c3.446 0 6.25-2.804 6.25-6.25s-2.804-6.25-6.25-6.25-6.25 2.804-6.25 6.25S26.554 65.75 30 65.75zM30 57.25c1.241 0 2.25 1.009 2.25 2.25s-1.009 2.25-2.25 2.25-2.25-1.009-2.25-2.25S28.759 57.25 30 57.25z" fill="#000000" data-fill-palette-color="accent"></path></g><polygon points="61,41 61,34 62.756,29.25 65,34 65,41 " fill="#000000" data-fill-palette-color="accent"></polygon><path d="M54.613 15.774c0 0-2.773 3.896-2.773 6.261s2.942 2.314 2.942 2.314 2.604-0.194 2.604-2.209S54.613 15.774 54.613 15.774z" fill="#000000" data-fill-palette-color="accent"></path></svg></g></svg></g><g></g></svg></g><defs></defs></svg><rect width="279.18144950411505" height="247.2" fill="none" stroke="none" visibility="hidden"></rect></g></svg></g></svg>